<svg xmlns:xlink="http://www.w3.org/1999/xlink" xmlns="http://www.w3.org/2000/svg" version="1.1" viewBox="0 0 1024 1024" height="1024px" width="1024px">
    <title>头像-男学生5</title>
    <defs>
        <circle r="512" cy="512" cx="512" id="path-1"></circle>
        <rect height="133" width="94" y="0" x="0" id="path-3"></rect>
        <ellipse ry="269" rx="344" cy="344" cx="269" id="path-5"></ellipse>
    </defs>
    <g fill-rule="evenodd" fill="none" stroke-width="1" stroke="none" id="头像-男学生5">
        <rect height="1024" width="1024" y="0" x="0" fill="#FFFFFF"></rect>
        <g id="编组-2">
            <mask fill="white" id="mask-2">
                <use xlink:href="#path-1"></use>
            </mask>
            <use xlink:href="#path-1" fill="#1C8784" fill-opacity="0.2" id="蒙版"></use>
            <g mask="url(#mask-2)" id="编组">
                <g transform="translate(120.833664, 130.947862)">
                    <path fill-rule="evenodd" fill="#FBB4B4" stroke="none" id="椭圆形备份-4" d="M154.616298,498.877271 C172.073979,490.297567 174.697557,466.344802 160.476225,445.377271 C146.254893,424.409741 120.573979,414.367423 103.116298,422.947127 C85.6586171,431.52683 83.0350383,455.479596 97.2563706,476.447127 C111.477703,497.414657 137.158617,507.456975 154.616298,498.877271 Z"></path>
                    <path fill-rule="evenodd" fill="#FBB4B4" stroke="none" id="椭圆形备份-12" d="M627.116298,498.877271 C609.658617,490.297567 607.035038,466.344802 621.256371,445.377271 C635.477703,424.409741 661.158617,414.367423 678.616298,422.947127 C696.073979,431.52683 698.697557,455.479596 684.476225,476.447127 C670.254893,497.414657 644.573979,507.456975 627.116298,498.877271 Z"></path>
                    <line stroke-linejoin="round" stroke-linecap="round" opacity="0.106926328" fill="none" stroke-width="7" stroke="#000000" id="路径-6" y2="908.68815" x2="232.666336" y1="822.552138" x1="258.666336"></line>
                    <line transform="translate(536.666336, 865.389824) scale(-1, 1) translate(-536.666336, -865.389824)" stroke-linejoin="round" stroke-linecap="round" opacity="0.106926328" fill="none" stroke-width="7" stroke="#000000" id="路径-6备份" y2="908.68815" x2="523.666336" y1="822.552138" x1="549.666336"></line>
                    <g transform="translate(344.166336, 581.052138)" fill-rule="evenodd" fill="none" stroke-width="1" stroke="none" id="椭圆形备份-11">
                        <mask fill="white" id="mask-4">
                            <use xlink:href="#path-3"></use>
                        </mask>
                        <use xlink:href="#path-3" fill="#FFCACA" id="蒙版"></use>
                        <ellipse ry="47" rx="79" cy="5" cx="47" mask="url(#mask-4)" opacity="0.214906238" style="mix-blend-mode: multiply;" fill="#EC8484"></ellipse>
                    </g>
                    <ellipse ry="225" rx="255" cy="393.052138" cx="391.166336" fill-rule="evenodd" fill="#FFCACA" stroke="none" id="椭圆形"></ellipse>
                    <path stroke-linejoin="round" stroke-linecap="round" fill="none" stroke-width="8" stroke="#FF9494" id="路径-5备份" d="M381.166336,463.052138 L381.166336,489.052138 C381.166336,496.784124 387.434349,503.052138 395.166336,503.052138 L401.999286,503.052138 L401.999286,503.052138"></path>
                    <circle r="19" cy="436.052138" cx="294.166336" fill-rule="evenodd" fill="#110D2E" stroke="none" id="椭圆形"></circle>
                    <circle r="19" cy="436.052138" cx="488.166336" fill-rule="evenodd" fill="#110D2E" stroke="none" id="椭圆形备份-7"></circle>
                    <path stroke-linejoin="round" stroke-linecap="round" fill="none" stroke-width="10" stroke="#EC8484" id="路径-35" d="M348.166336,549.552138 L354.790675,552.413999 C377.669397,562.298113 403.800861,561.245097 425.810094,549.552138 L425.810094,549.552138 L425.810094,549.552138"></path>
                    <path stroke-linejoin="round" stroke-linecap="round" fill="none" stroke-width="6" stroke="#110D2E" id="路径-4备份" d="M259.166336,388.680878 C273.284528,384.928385 284.77399,383.052138 293.634722,383.052138 C302.495455,383.052138 314.258216,384.928385 328.923004,388.680878"></path>
                    <path transform="translate(488.044670, 385.866508) scale(-1, 1) translate(-488.044670, -385.866508)" stroke-linejoin="round" stroke-linecap="round" fill="none" stroke-width="6" stroke="#110D2E" id="路径-4备份-2" d="M453.166336,388.680878 C467.284528,384.928385 478.77399,383.052138 487.634722,383.052138 C496.495455,383.052138 508.258216,384.928385 522.923004,388.680878"></path>
                    <g transform="translate(122.166336, 650.052138)" fill-rule="evenodd" fill="none" stroke-width="1" stroke="none" id="路径-23备份-+-路径-23备份-蒙版">
                        <mask fill="white" id="mask-6">
                            <use xlink:href="#path-5"></use>
                        </mask>
                        <use xlink:href="#path-5" transform="translate(269.000000, 344.000000) rotate(-90.000000) translate(-269.000000, -344.000000)" fill="#FFFFFF" id="蒙版"></use>
                        <rect height="362" width="191" y="-1.8189894e-12" x="1.8189894e-12" mask="url(#mask-6)" fill="#1C8784" id="矩形"></rect>
                        <rect height="362" width="191" y="-1.8189894e-12" x="341" mask="url(#mask-6)" fill="#1C8784" id="矩形备份"></rect>
                        <ellipse ry="24" rx="72" cy="2" cx="269" mask="url(#mask-6)" fill="#FFCACA" id="椭圆形"></ellipse>
                    </g>
                    <circle r="8" cy="740.052138" cx="391.166336" fill-rule="evenodd" fill="#1C8784" stroke="none" id="椭圆形"></circle>
                    <circle r="8" cy="803.052138" cx="391.166336" fill-rule="evenodd" fill="#1C8784" stroke="none" id="椭圆形备份-2"></circle>
                    <circle r="8" cy="866.052138" cx="391.166336" fill-rule="evenodd" fill="#1C8784" stroke="none" id="椭圆形备份-3"></circle>
                    <line stroke-linejoin="round" stroke-linecap="round" opacity="0.106926328" fill="none" stroke-width="7" stroke="#000000" id="路径-6" y2="908.68815" x2="232.666336" y1="822.552138" x1="258.666336"></line>
                    <line transform="translate(536.666336, 865.389824) scale(-1, 1) translate(-536.666336, -865.389824)" stroke-linejoin="round" stroke-linecap="round" opacity="0.106926328" fill="none" stroke-width="7" stroke="#000000" id="路径-6备份" y2="908.68815" x2="523.666336" y1="822.552138" x1="549.666336"></line>
                    <ellipse ry="206.5" rx="135" cy="241.476966" cx="241.476966" transform="translate(241.476966, 241.476966) rotate(-315.000000) translate(-241.476966, -241.476966)" fill-rule="evenodd" fill="#110D2E" stroke="none" id="椭圆形"></ellipse>
                    <ellipse ry="206.5" rx="135" cy="241.476966" cx="541.476966" transform="translate(541.476966, 241.476966) scale(-1, 1) rotate(-315.000000) translate(-541.476966, -241.476966)" fill-rule="evenodd" fill="#110D2E" stroke="none" id="椭圆形备份"></ellipse>
                </g>
            </g>
        </g>
    </g>
</svg>