<svg xmlns:xlink="http://www.w3.org/1999/xlink" xmlns="http://www.w3.org/2000/svg" height="1024" width="1024"><defs><ellipse ry="269" rx="344" cy="344" cx="269" id="e"/><circle r="512" cy="512" cx="512" id="a"/><path id="c" d="M0 0h94v133H0z"/></defs><g fill-rule="evenodd" fill="none"><path fill="#FFF" d="M0 0h1024v1024H0z"/><mask fill="#fff" id="b"><use xlink:href="#a"/></mask><use xlink:href="#a" fill="#1C8784" fill-opacity=".2"/><g mask="url(#b)"><g transform="translate(120.834 130.948)"><path fill="#FBB4B4" d="M154.616 498.877c17.458-8.58 20.082-32.532 5.86-53.5-14.221-20.967-39.902-31.01-57.36-22.43-17.457 8.58-20.081 32.533-5.86 53.5 14.222 20.968 39.903 31.01 57.36 22.43ZM627.116 498.877c-17.457-8.58-20.081-32.532-5.86-53.5 14.222-20.967 39.903-31.01 57.36-22.43 17.458 8.58 20.082 32.533 5.86 53.5-14.221 20.968-39.902 31.01-57.36 22.43Z"/><path stroke-linejoin="round" stroke-linecap="round" opacity=".107" stroke-width="7" stroke="#000" d="m258.666 822.552-26 86.136M523.667 822.552l26 86.136"/><g transform="translate(344.166 581.052)"><mask fill="#fff" id="d"><use xlink:href="#c"/></mask><use xlink:href="#c" fill="#FFCACA"/><ellipse ry="47" rx="79" cy="5" cx="47" mask="url(#d)" opacity=".215" style="mix-blend-mode:multiply" fill="#EC8484"/></g><ellipse ry="225" rx="255" cy="393.052" cx="391.166" fill="#FFCACA"/><path stroke-linejoin="round" stroke-linecap="round" stroke-width="8" stroke="#FF9494" d="M381.166 463.052v26c0 7.732 6.268 14 14 14H402"/><circle r="19" cy="436.052" cx="294.166" fill="#110D2E"/><circle r="19" cy="436.052" cx="488.166" fill="#110D2E"/><path stroke-linejoin="round" stroke-linecap="round" stroke-width="10" stroke="#EC8484" d="m348.166 549.552 6.625 2.862a82.03 82.03 0 0 0 71.02-2.862h0"/><path stroke-linejoin="round" stroke-linecap="round" stroke-width="6" stroke="#110D2E" d="M259.166 388.68c14.119-3.752 25.608-5.628 34.469-5.628 8.86 0 20.623 1.876 35.288 5.629M522.923 388.68c-14.118-3.752-25.608-5.628-34.468-5.628-8.861 0-20.624 1.876-35.289 5.629"/><g transform="translate(122.166 650.052)"><mask fill="#fff" id="f"><use xlink:href="#e"/></mask><use xlink:href="#e" transform="rotate(-90 269 344)" fill="#FFF"/><path mask="url(#f)" fill="#1C8784" d="M0 0h191v362H0zM341 0h191v362H341z"/><ellipse ry="24" rx="72" cy="2" cx="269" mask="url(#f)" fill="#FFCACA"/></g><circle r="8" cy="740.052" cx="391.166" fill="#1C8784"/><circle r="8" cy="803.052" cx="391.166" fill="#1C8784"/><circle r="8" cy="866.052" cx="391.166" fill="#1C8784"/><path stroke-linejoin="round" stroke-linecap="round" opacity=".107" stroke-width="7" stroke="#000" d="m258.666 822.552-26 86.136M523.667 822.552l26 86.136"/><ellipse ry="206.5" rx="135" cy="241.477" cx="241.477" transform="rotate(45 241.477 241.477)" fill="#110D2E"/><ellipse ry="206.5" rx="135" cy="241.477" cx="541.477" transform="scale(-1 1) rotate(45 0 -1065.764)" fill="#110D2E"/></g></g></g></svg>