<svg xml:space="preserve" style="enable-background:new 0 0 500 500" viewBox="0 0 500 500" xmlns:xlink="http://www.w3.org/1999/xlink" xmlns="http://www.w3.org/2000/svg"><defs><circle r="250" cy="249" cx="248.6" id="a"/></defs><clipPath id="b"><use style="overflow:visible" xlink:href="#a"/></clipPath><path d="M224.6 399.9s4.7-382 75.3-494.9c36.7-45.2 105.4 509 105.4 509l-180.7-14.1z" style="clip-path:url(#b);fill:#6ec19e"/><defs><circle r="250" cy="249" cx="248.6" id="c"/></defs><clipPath id="d"><use style="overflow:visible" xlink:href="#c"/></clipPath><path d="M-14.4-307.6s97.1-43 126.8 473.5l-127 4.2.2-477.7z" style="clip-path:url(#d);fill:#6ec19e"/><defs><circle r="250" cy="249" cx="248.6" id="e"/></defs><clipPath id="f"><use style="overflow:visible" xlink:href="#e"/></clipPath><path d="M207.7 533.5s-5.6-237.1 104.4-319 183.5 335.9 183.5 335.9l-287.9-16.9z" style="clip-path:url(#f);fill:#59997e"/><defs><circle r="250" cy="249" cx="248.6" id="g"/></defs><clipPath id="h"><use style="overflow:visible" xlink:href="#g"/></clipPath><path d="M-9.7-81.8s217.3 282.3 234.3 637.9H-18.1l8.4-637.9z" style="clip-path:url(#h);fill:#8eccb0"/><defs><circle r="250" cy="249" cx="248.6" id="i"/></defs><clipPath id="j"><use style="overflow:visible" xlink:href="#i"/></clipPath><path d="M357.3 527.9s50.8-591.4 152.4-725.4l5.1 778.4H355.7l1.6-53z" style="clip-path:url(#j);fill:#85c9aa"/></svg>